<?xml version="1.0" encoding="UTF-8"?>
<!-- Generator: visioncortex VTracer 0.6.12 -->
<svg version="1.1" xmlns="http://www.w3.org/2000/svg" width="4000" height="5176">
<path d="M0 0 C1320 0 2640 0 4000 0 C4000 1708.08 4000 3416.16 4000 5176 C2680 5176 1360 5176 0 5176 C0 3467.92 0 1759.84 0 0 Z " fill="#000000" transform="translate(0,0)"/>
<path d="M0 0 C0.84262747 -0.00165078 1.68525495 -0.00330156 2.55341659 -0.00500236 C5.39544841 -0.00933868 8.2374287 -0.00652248 11.07946187 -0.00377727 C13.13900965 -0.00542636 15.19855712 -0.00751238 17.25810406 -0.00999737 C22.95327643 -0.01558076 28.64843382 -0.01488855 34.34360806 -0.01321978 C40.52610901 -0.01249065 46.70860568 -0.01750697 52.89110482 -0.0217948 C63.73867065 -0.02850288 74.5862311 -0.03147291 85.43379861 -0.03192973 C97.07598473 -0.03243183 108.71816736 -0.03507575 120.36035234 -0.04033732 C121.09507965 -0.04066746 121.82980696 -0.04099759 122.58679873 -0.04133773 C125.57912931 -0.0426877 128.57145989 -0.04405036 131.56379046 -0.04542983 C167.00618045 -0.06173984 202.44856978 -0.06811929 237.89096288 -0.0728777 C255.53556974 -0.07526004 273.18017623 -0.07896333 290.8247828 -0.0829148 C347.40836567 -0.09557959 403.99194853 -0.10636373 460.57553279 -0.10975526 C463.2803951 -0.1099175 465.98525741 -0.11008306 468.69011972 -0.11024964 C474.11486004 -0.11058345 479.53960037 -0.11091393 484.96434069 -0.1112442 C491.31553761 -0.1116311 497.66673454 -0.11202071 504.01793146 -0.11241527 C505.83570279 -0.11252769 507.65347413 -0.1126391 509.47124547 -0.11274952 C567.86226195 -0.1162996 626.25326614 -0.13138048 684.64427793 -0.15468726 C726.59711185 -0.17142597 768.54994344 -0.18690269 810.50278074 -0.19142222 C811.36532577 -0.19151571 812.22787081 -0.1916092 813.11655357 -0.19170551 C832.05041717 -0.19372444 850.98428074 -0.19488059 869.91814444 -0.1952341 C876.69285547 -0.19537028 883.4675665 -0.19557927 890.24227752 -0.19582735 C891.92769529 -0.19588891 893.61311305 -0.19594723 895.29853081 -0.1960023 C922.16785573 -0.19692256 949.03716781 -0.20689606 975.9064885 -0.22145979 C1002.965733 -0.23606779 1030.02496175 -0.24112256 1057.08420949 -0.23304025 C1060.82209169 -0.23192484 1064.55997391 -0.23091419 1068.29785615 -0.22996593 C1068.66422511 -0.22987094 1068.66422511 -0.22987094 1070.51827409 -0.22939027 C1082.12779711 -0.22665495 1093.73729105 -0.23400392 1105.34680774 -0.24553929 C1116.7583168 -0.25666868 1128.16977381 -0.25687158 1139.58128739 -0.24616911 C1145.68744482 -0.24075282 1151.7935009 -0.24014465 1157.89965012 -0.25267783 C1163.45192962 -0.26397948 1169.00402488 -0.26153344 1174.55629787 -0.24801075 C1176.55495789 -0.24557032 1178.55363193 -0.24818332 1180.55227653 -0.25640723 C1196.40902651 -0.31737673 1209.59114742 1.15935024 1222.02088815 12.23311925 C1230.30272961 21.04524811 1234.90165772 31.51442964 1234.91487581 43.65531754 C1234.91838188 44.38411161 1234.92188795 45.11290567 1234.92550027 45.8637844 C1234.93478933 48.30099364 1234.92989745 50.73796261 1234.92503244 53.17518163 C1234.92876996 54.94221203 1234.93337189 56.70924079 1234.93876308 58.47626692 C1234.95099598 63.32857825 1234.95073226 68.18082065 1234.94837433 73.03314388 C1234.94796624 78.26780224 1234.95900466 83.50243848 1234.96848947 88.73708653 C1234.98510234 98.99186324 1234.99059916 109.24661694 1234.99171422 119.50140598 C1234.99266462 127.8378106 1234.99677448 136.17420764 1235.00311548 144.51060987 C1235.02072912 168.14826841 1235.02995422 191.78590878 1235.02845453 215.42357393 C1235.02841457 216.06072923 1235.02841457 216.06072923 1235.02821237 219.2851212 C1235.02817149 219.92305495 1235.02817149 219.92305495 1235.02796461 223.15138636 C1235.0271518 243.82605073 1235.04628775 264.50064224 1235.0744891 285.17528554 C1235.10322065 306.40624327 1235.11702923 327.63716547 1235.11530155 348.86814314 C1235.11463771 360.78672531 1235.12012716 372.7052311 1235.14165765 384.62379575 C1235.15987302 394.77225334 1235.16421384 404.92059992 1235.1506388 415.06906679 C1235.14411085 420.24523587 1235.14398586 425.42119202 1235.1613453 430.59734082 C1235.17708858 435.34045364 1235.17419945 440.08318492 1235.15677704 444.8262885 C1235.15370991 446.53758867 1235.15732865 448.24891741 1235.16849719 449.96018388 C1235.26200645 465.3106591 1232.65704644 477.73144208 1221.70838815 489.16280675 C1217.41680761 493.13399424 1213.03888106 495.89520643 1207.6576069 498.1276505 C1207.03531049 498.39616481 1206.41301408 498.66467912 1205.7718602 498.94133022 C1196.7064843 502.24225598 1187.11929421 501.54418592 1177.61606866 501.51076055 C1175.55019614 501.51449862 1173.48432565 501.51954867 1171.41845918 501.52578938 C1165.72897216 501.53915013 1160.03963195 501.53380689 1154.35014101 501.52545588 C1148.16508899 501.51965842 1141.98006547 501.53119169 1135.79502112 501.54051757 C1124.95061255 501.55444688 1114.10625843 501.55726193 1103.26184541 501.55255818 C1091.6265852 501.54755698 1079.99135293 501.54904775 1068.35609514 501.55844045 C1067.62101635 501.55902893 1066.88593756 501.5596174 1066.12858365 501.56022372 C1063.13468134 501.56264028 1060.14077906 501.56510037 1057.14687683 501.56761637 C1026.75601156 501.59312312 996.36516404 501.59910348 965.97428952 501.59720523 C961.77495798 501.5969456 957.57562645 501.59670693 953.37629491 501.59649014 C952.54220559 501.59644611 951.70811628 501.59640207 950.84875153 501.59635669 C932.3647998 501.59549331 913.88085085 501.60028453 895.39690021 501.60617206 C891.17645086 501.60751303 886.95600151 501.60881291 882.73555215 501.6101177 C881.04171526 501.61064223 879.34787837 501.61116682 877.65404148 501.61169147 C877.23423927 501.61182136 877.23423927 501.61182136 875.10978567 501.61247869 C873.41150105 501.61300487 871.71321644 501.61353254 870.01493182 501.6140617 C821.82391778 501.62905932 773.63290594 501.63782733 725.44188958 501.63310552 C724.54946735 501.63301965 723.65704511 501.63293379 722.73757978 501.63284532 C712.78608769 501.63188592 702.8345956 501.63084771 692.88310352 501.62978643 C690.15936498 501.62949691 687.43562643 501.62920743 684.71188789 501.62891803 C682.89456623 501.62872403 681.07724457 501.62852853 679.25992291 501.62833154 C621.79009082 501.62211543 564.32030084 501.6369757 506.85047799 501.66964269 C492.37001825 501.6778659 477.88955847 501.68601586 463.40909845 501.69374394 C462.51748305 501.69422014 461.62586765 501.69469634 460.7072336 501.69518696 C433.22788349 501.70977277 405.74853688 501.71821841 378.26918298 501.7203095 C377.40647175 501.72037581 376.54376051 501.72044213 375.65490652 501.72051046 C356.71654176 501.7219045 337.77817726 501.72179327 318.83981251 501.72030037 C312.06337994 501.71977826 305.28694735 501.71936109 298.51051477 501.7189922 C296.82470868 501.71889898 295.13890258 501.71879984 293.45309649 501.71869475 C266.59060225 501.71706962 239.72813937 501.72989428 212.86565325 501.74985253 C185.81112345 501.76983542 158.75664042 501.77356044 131.70210805 501.75522678 C127.96297976 501.752693 124.22385138 501.75033054 120.48472291 501.74806905 C119.75175936 501.74761867 119.0187958 501.74716829 118.26362123 501.74670426 C106.66179946 501.74002808 95.06005546 501.7501099 83.45824688 501.76718043 C72.04772159 501.78361709 60.63734435 501.78175966 49.22681328 501.76178207 C43.12399577 501.75160938 37.02145765 501.74936074 30.91865733 501.76910275 C25.3647276 501.78690746 19.81131257 501.78162559 14.2574086 501.75807436 C12.26269162 501.75363113 10.26793375 501.75752713 8.27325653 501.77088271 C-7.1896358 501.86738823 -20.59506186 500.3356831 -32.3423931 489.1276505 C-32.97790091 488.53210362 -33.61340873 487.93655675 -34.26817435 487.322963 C-42.00765017 479.33489588 -45.4615181 468.90081156 -45.47661418 457.96912694 C-45.47896641 457.24379441 -45.48131864 456.51846188 -45.48374215 455.77114958 C-45.49042728 453.3277124 -45.48997407 450.88432847 -45.48956412 448.44088292 C-45.49286306 446.67644283 -45.49658869 444.9120035 -45.5007056 443.14756513 C-45.5107305 438.28849359 -45.51444319 433.4294344 -45.51709491 428.57035398 C-45.52099655 423.33360336 -45.53057504 418.09686253 -45.53930777 412.86011815 C-45.55907692 400.20755823 -45.56913931 387.55499751 -45.57803556 374.902426 C-45.58241803 368.94472443 -45.58778497 362.98702374 -45.59302443 357.02932286 C-45.61003773 337.22518656 -45.62453176 317.42105081 -45.63177317 297.61690831 C-45.63368308 292.47677159 -45.63560341 287.33663486 -45.63755912 282.19649816 C-45.63804286 280.91893415 -45.6385266 279.64137014 -45.639025 278.32509208 C-45.64732473 257.63084103 -45.67266026 236.93664779 -45.70513979 216.24242198 C-45.73821109 194.99800311 -45.75622203 173.75361362 -45.75941741 152.50916886 C-45.76158252 140.58047646 -45.77033128 128.65186835 -45.79587859 116.72320104 C-45.81758656 106.56369723 -45.82563551 96.40429818 -45.81591181 86.24477381 C-45.81136733 81.06254558 -45.81326208 75.88053351 -45.83267325 70.69833493 C-45.85030703 65.94955813 -45.84930533 61.20115513 -45.83377596 56.45237434 C-45.83140022 54.73896283 -45.83572165 53.02552541 -45.84760461 51.31215346 C-45.94826917 35.83257318 -43.18300421 23.92242448 -32.5689556 12.16280675 C-23.53979414 3.45747597 -12.25085286 -0.03378085 0 0 Z " fill="#006D85" transform="translate(1404.3423931002617,2906.872349500656)"/>
<path d="M0 0 C4.92354387 3.87156575 8.09585927 7.84509987 11.0625 13.3125 C11.42725937 13.94858185 11.79201874 14.5846637 12.16783142 15.24002075 C16.49395332 24.13651505 15.66016704 33.90216983 15.62890625 43.5546875 C15.63415001 45.52947277 15.64042922 47.50425554 15.64768982 49.47903442 C15.65806261 53.60609776 15.65357832 57.73281564 15.63891602 61.85986328 C15.62174537 67.12078637 15.64521906 72.38061545 15.68040562 77.64141655 C15.70248084 81.71667573 15.70091352 85.79167729 15.6926403 89.86697769 C15.69182609 91.80525028 15.69858702 93.74354281 15.71341133 95.68175888 C15.81003466 110.60098097 14.31464586 121.96124486 3.44140625 133.12109375 C-6.77560269 142.5328212 -17.50508278 144.93099133 -31.26171875 144.59375 C-42.74564348 143.715065 -52.80962459 140.09066478 -60.75 131.5 C-68.32842494 122.09846339 -71.25296345 112.82184026 -71.2121582 100.83032227 C-71.21471367 100.43292343 -71.21471367 100.43292343 -71.22764587 98.42184448 C-71.24141709 95.82411937 -71.24059475 93.22666326 -71.23828125 90.62890625 C-71.2421747 88.80484419 -71.2465107 86.98078303 -71.25126648 85.15672302 C-71.25870165 81.34493055 -71.25845686 77.53323075 -71.25317383 73.72143555 C-71.24737929 68.85850005 -71.26432303 63.99594543 -71.2875185 59.13307285 C-71.30231283 55.36933712 -71.30311987 51.60569196 -71.30000877 47.8419323 C-71.30051901 46.04993879 -71.30570021 44.25793981 -71.31582069 42.46597481 C-71.38800055 27.90144443 -70.26263978 15.2543168 -59.828125 4.046875 C-43.62988775 -11.03424244 -18.310404 -12.32998979 0 0 Z " fill="#000000" transform="translate(2506.9375,2998.6875)"/>
<path d="M0 0 C2.31050121 1.69695635 4.37880014 3.47575004 6.44921875 5.45703125 C7.09761719 6.07707031 7.74601562 6.69710937 8.4140625 7.3359375 C16.32932095 15.6193475 18.5859811 25.34946807 18.6262207 36.52929688 C18.6327919 37.32844513 18.6393631 38.12759338 18.64613342 38.95095825 C18.6657953 41.58840037 18.67751644 44.22578558 18.6875 46.86328125 C18.69157553 47.76920517 18.69565105 48.67512909 18.69985008 49.60850525 C18.72068589 54.4085975 18.73499537 59.20866142 18.74438477 64.00878906 C18.75541194 68.93661962 18.78977615 73.86399402 18.82955647 78.79166412 C18.85586417 82.60612758 18.86408934 86.42048495 18.86766624 90.23503113 C18.8724999 92.04968833 18.88402042 93.86434185 18.90270424 95.6789093 C19.04480022 110.4004423 18.19673858 123.25602957 7.44921875 134.45703125 C-1.611517 143.59976461 -11.75466198 146.60554685 -24.42578125 146.76953125 C-36.81975304 146.71056028 -47.50585217 143.32261992 -56.73828125 134.89453125 C-64.88789532 126.32113724 -67.68800314 116.59128339 -67.7277832 105.07763672 C-67.7343544 104.24601517 -67.7409256 103.41439362 -67.74769592 102.55757141 C-67.76735888 99.81311947 -67.77907735 97.06872215 -67.7890625 94.32421875 C-67.79313803 93.38270084 -67.79721355 92.44118294 -67.80141258 91.47113419 C-67.82224586 86.48531568 -67.8365581 81.49952444 -67.84594727 76.51367188 C-67.8569917 71.38611451 -67.89137688 66.25899345 -67.93111897 61.13158989 C-67.95737311 57.16965984 -67.965647 53.20783228 -67.96922874 49.24582291 C-67.97407382 47.35694566 -67.98562785 45.46807235 -68.00426674 43.57928085 C-68.14671995 28.18393798 -66.52296569 16.84252169 -55.515625 5.328125 C-41.46782885 -8.12505544 -16.64241522 -10.06700461 0 0 Z " fill="#000000" transform="translate(2309.55078125,2996.54296875)"/>
<path d="M0 0 C9.29094225 6.80090747 16.01127198 15.07625036 18.51953125 26.45703125 C18.62924039 29.25085491 18.68703699 32.02046308 18.6965332 34.81469727 C18.7031044 35.65592636 18.7096756 36.49715546 18.71644592 37.36387634 C18.73614412 40.14623105 18.74783629 42.92853175 18.7578125 45.7109375 C18.76188803 46.66440504 18.76596355 47.61787258 18.77016258 48.60023308 C18.79101254 53.65088559 18.80531664 58.70151105 18.81469727 63.75219727 C18.82573506 68.94816229 18.86010769 74.14369594 18.89986897 79.33950901 C18.92612305 83.35205332 18.93439708 87.36449643 18.93797874 91.37711906 C18.94282517 93.2911157 18.95438313 95.2051084 18.97301674 97.11902046 C19.09997421 111.0282234 18.39755442 122.71411205 8.51953125 133.45703125 C-1.02965695 143.12508902 -10.89201049 146.59688257 -24.35546875 146.76953125 C-36.41258564 146.69964302 -46.63180713 143.62082671 -55.70703125 135.453125 C-64.29613964 126.4619048 -67.6234094 116.57163582 -67.64160156 104.3371582 C-67.64656647 103.53319107 -67.65153137 102.72922394 -67.65664673 101.90089417 C-67.67121466 99.24902479 -67.67806221 96.59721527 -67.68359375 93.9453125 C-67.68935064 92.09311421 -67.6951083 90.24091593 -67.7008667 88.38871765 C-67.71136214 84.50596846 -67.717214 80.62323989 -67.72070312 76.74047852 C-67.72617764 71.78553289 -67.75018955 66.83086345 -67.77867508 61.87600422 C-67.79737867 58.04879483 -67.80251121 54.22165086 -67.804039 50.39439964 C-67.80704983 48.56890545 -67.81502479 46.74341198 -67.82822418 44.91796303 C-67.92681266 30.23241353 -66.90114506 17.50146136 -56.37109375 6.19140625 C-41.71375788 -7.45507887 -17.38015797 -10.81127937 0 0 Z " fill="#000000" transform="translate(2505.48046875,3179.54296875)"/>
<path d="M0 0 C6.0648333 -0.07471366 12.12939276 -0.12886656 18.19458008 -0.16479492 C20.25354689 -0.17978857 22.31248227 -0.20019033 24.37133789 -0.22631836 C40.23045858 -0.42239476 54.57205714 -0.45222891 67.00390625 10.81640625 C75.17658667 19.55393715 79.60010544 30.64716911 79.24609375 42.62109375 C78.32244452 51.549703 74.95173418 58.61246131 70 66 C70.5775 66.226875 71.155 66.45375 71.75 66.6875 C79.21549776 71.04237369 83.49302579 81.0541665 86 89 C86.19078125 89.59039063 86.3815625 90.18078125 86.578125 90.7890625 C89.04636598 103.72447357 87.0148207 117.40052192 79.6875 128.375 C71.57656387 138.99482739 61.39910242 147.05617228 47.96069336 149.56811523 C42.89525801 150.12046407 37.90752366 150.12357496 32.81640625 150.09765625 C31.76090073 150.0962413 30.7053952 150.09482635 29.61790466 150.09336853 C26.26607357 150.08779722 22.91431071 150.07525002 19.5625 150.0625 C17.28190201 150.05748129 15.00130297 150.05291903 12.72070312 150.04882812 C7.1471116 150.03783719 1.57356283 150.02072065 -4 150 C-3.71758327 149.33118396 -3.43516655 148.66236792 -3.14419174 147.97328472 C-0.45289073 141.18836438 0.58507142 135.46934643 0.54589844 128.2043457 C0.55623611 127.18836807 0.56657379 126.17239044 0.57722473 125.12562561 C0.60643069 121.80884476 0.60814721 118.49268003 0.609375 115.17578125 C0.62437161 112.85978548 0.64110185 110.54380035 0.65948486 108.22782898 C0.70300392 102.1632943 0.72312329 96.09890387 0.73822021 90.03424072 C0.75784702 83.83328782 0.79981073 77.63248942 0.83984375 71.43164062 C0.91497876 59.28778209 0.96330438 47.14403558 1 35 C11.23 35 21.46 35 32 35 C31.01 38.3 30.02 41.6 29 45 C28.60486049 47.65821124 28.24777525 50.32402735 28 53 C43.79834254 53.64143646 43.79834254 53.64143646 49.875 48.375 C51.9032798 44.09307597 52.84391168 39.51277074 51.3046875 34.9296875 C49.41557635 31.37458857 47.76987205 29.31198361 44 28 C41.18215218 27.79545239 38.46614469 27.69592291 35.6484375 27.69921875 C35.24140091 27.69707619 35.24140091 27.69707619 33.18154907 27.68623352 C31.45844449 27.68049636 29.73531569 27.67998544 28.01220703 27.68432617 C25.40483944 27.68746409 22.79863182 27.66409738 20.19140625 27.63867188 C11.73470161 27.6079324 3.92202676 27.60649648 -4 31 C-3.71316131 28.08278945 -3.42060334 25.16632549 -3.125 22.25 C-3.04636719 21.44433594 -2.96773437 20.63867188 -2.88671875 19.80859375 C-2.20552966 13.15390031 -1.15755763 6.58742612 0 0 Z " fill="#000000" transform="translate(2136,2992)"/>
<path d="M0 0 C6.06529848 -0.06924442 12.12919982 -0.12886541 18.19458008 -0.16479492 C20.25354689 -0.17978857 22.31248227 -0.20019033 24.37133789 -0.22631836 C41.42703752 -0.43718883 55.59796044 0.1485642 68.8125 12.25 C77.05753123 21.03951442 79.52236135 32.34861491 79.39453125 44.0625 C78.77678172 50.22776268 76.566427 55.41607702 74 61 C73.32474722 62.66320651 72.65504005 64.3287296 72 66 C72.42410156 66.41507813 72.84820313 66.83015625 73.28515625 67.2578125 C82.35219679 76.78318695 87.75195662 88.84116957 88.25 102 C87.76140961 114.90907228 82.43159073 127.62387305 73.41796875 136.96875 C61.65796169 146.84791587 48.52421917 150.53111927 33.328125 150.29296875 C32.80390961 150.29084633 32.80390961 150.29084633 30.15106201 150.28010559 C26.85043026 150.26350905 23.5504426 150.22589409 20.25 150.1875 C17.99219641 150.17242853 15.73438311 150.15874448 13.4765625 150.14648438 C7.98416068 150.11366833 2.49212637 150.06366386 -3 150 C-2.7183197 149.11183594 -2.4366394 148.22367188 -2.14642334 147.30859375 C1.42096375 135.21106337 1.60437918 123.53715447 1.609375 111 C1.62438867 108.82567127 1.64112238 106.65135381 1.65948486 104.47705078 C1.70281288 98.80879129 1.72308016 93.14068553 1.73822021 87.47229004 C1.757917 81.66633136 1.7998721 75.86053573 1.83984375 70.0546875 C1.91477102 58.70314811 1.96322608 47.35172716 2 36 C11.9 36 21.8 36 32 36 C30.68 41.94 29.36 47.88 28 54 C29.1859375 53.9484375 29.1859375 53.9484375 35.1875 53.6875 C35.92508545 53.66260498 36.6626709 53.63770996 37.42260742 53.61206055 C42.68270956 53.3201089 45.81247283 51.87502329 49.75 48.5 C52.30760441 45.43087471 52.33174586 41.9292505 52.2890625 38.06640625 C51.81603804 34.6849206 50.1444493 32.57333916 48 30 C44.15812424 27.4387495 40.98261046 27.69418222 36.52734375 27.69921875 C35.68965958 27.69493362 34.8519754 27.6906485 33.98890686 27.68623352 C32.21274721 27.68048837 30.43656404 27.67999132 28.66040039 27.68432617 C25.97174561 27.68746008 23.28421973 27.66412149 20.59570312 27.63867188 C18.86458471 27.63639597 17.13346336 27.63569673 15.40234375 27.63671875 C14.61029037 27.627509 13.818237 27.61829926 13.00218201 27.60881042 C6.50059697 27.66137862 2.68197487 28.99540754 -4 31 C-2.68 20.77 -1.36 10.54 0 0 Z " fill="#000000" transform="translate(2130,3175)"/>
<path d="M0 0 C11.88 0 23.76 0 36 0 C34.68 3.96 33.36 7.92 32 12 C31.65167222 15.74984442 31.45951347 19.18814072 31.49829102 22.92163086 C31.49288803 23.93947662 31.48748505 24.95732239 31.48191833 26.00601196 C31.46954443 29.32593039 31.48583819 32.64496267 31.50390625 35.96484375 C31.50375108 38.28984116 31.50225917 40.61483882 31.49949646 42.93983459 C31.49811784 47.79049236 31.51058727 52.64085248 31.53344727 57.49145508 C31.56194129 63.70785075 31.55905718 69.92375659 31.54635715 76.14018917 C31.53940659 80.93142384 31.54718036 85.72254514 31.55961418 90.51376534 C31.56412689 92.80669279 31.56446706 95.09963241 31.56054878 97.39256096 C31.55763992 100.59000586 31.57412475 103.78677178 31.59594727 106.98413086 C31.59369644 107.45663017 31.59369644 107.45663017 31.58230591 109.84776306 C31.63736359 114.70067621 31.7912258 118.08613021 35 122 C39.44438109 124.82824251 44.91041586 124.53662831 50 124 C54.29212678 122.26488492 56.05794669 120.15316019 58 116 C58.43784492 112.81375114 58.40989956 109.65524166 58.38818359 106.44311523 C58.39081207 105.9647094 58.39081207 105.9647094 58.40411377 103.54368591 C58.41731088 100.38182211 58.40857161 97.22046267 58.3984375 94.05859375 C58.40045948 91.85246179 58.40337195 89.64633048 58.40713501 87.44020081 C58.41155896 82.81252693 58.40512921 78.18502673 58.39111328 73.55737305 C58.37409168 67.65199271 58.3838176 61.74702356 58.40183067 55.84165859 C58.41272656 51.28175318 58.40919444 46.72194345 58.4014473 42.16203499 C58.39945765 39.98653171 58.40186075 37.8110195 58.40888596 35.63552666 C58.4625026 14.34944813 58.4625026 14.34944813 55 4 C54.835 3.34 54.835 3.34 54 0 C65.88 0 77.76 0 90 0 C89.01 2.31 88.02 4.62 87 7 C85.55599329 11.90835657 85.85533862 17.01778682 85.8581543 22.09179688 C85.85641708 22.59866028 85.85641708 22.59866028 85.84762573 25.16369629 C85.84028134 27.36314853 85.83492895 29.56260813 85.83133507 31.7620697 C85.82414903 35.25261375 85.80846443 38.7430189 85.78999329 42.23352051 C85.737638 52.1576136 85.68960111 62.08163127 85.67407227 72.00585938 C85.66394465 78.08073405 85.6344965 84.15525952 85.59275246 90.22999573 C85.58050293 92.5358261 85.57531004 94.84170593 85.57755089 97.14756775 C85.58985538 113.94779133 85.48550092 128.22631406 73.15234375 140.8984375 C63.47961407 150.01349489 53.30640359 151.40387614 40.4921875 151.20703125 C29.78924404 150.84613349 21.28304195 146.62067997 13.921875 138.7890625 C6.54717622 129.7101266 4.85492617 121.44477151 4.84228516 109.98413086 C4.83720444 108.97855133 4.83212372 107.9729718 4.82688904 106.93692017 C4.81620052 104.75547591 4.80757441 102.57402079 4.80076981 100.39256096 C4.78894929 96.93169883 4.76948623 93.47095972 4.74765015 90.01014709 C4.68615417 80.17062519 4.63209555 70.33111543 4.59863281 60.49145508 C4.57760096 54.46850088 4.54222662 48.44577063 4.49787521 42.42294502 C4.48377941 40.13582572 4.4750074 37.84866679 4.47182083 35.56150627 C4.43657165 12.67568136 4.43657165 12.67568136 1 3 C0.67 2.01 0.34 1.02 0 0 Z " fill="#000000" transform="translate(2232,3175)"/>
<path d="M0 0 C-0.20496094 0.51304687 -0.40992188 1.02609375 -0.62109375 1.5546875 C-2.53109739 6.98311889 -3.31744012 12.2235851 -3.5871582 17.95068359 C-3.62665998 18.7288059 -3.66616175 19.50692822 -3.70686054 20.30862999 C-4.17667483 30.50557235 -4.16432785 40.70846267 -4.16796875 50.9140625 C-4.17119143 53.0663556 -4.17455622 55.21864849 -4.17805481 57.37094116 C-4.18399041 61.84349069 -4.18590006 66.31602104 -4.18530273 70.78857422 C-4.18520039 76.50667591 -4.19895138 82.22465545 -4.21607494 87.94272804 C-4.22720033 92.3711707 -4.22922192 96.79958359 -4.22869301 101.22803879 C-4.22986849 103.33707482 -4.23426586 105.44611173 -4.24202538 107.55513382 C-4.25185424 110.49729315 -4.24893782 113.43918374 -4.24291992 116.38134766 C-4.24853943 117.24067902 -4.25415894 118.10001038 -4.25994873 118.98538208 C-4.23234954 124.31225808 -3.48381766 128.87900018 -2 134 C-5.29086844 134.34153092 -8.58279077 134.67166646 -11.875 135 C-12.33390625 135.04769531 -12.33390625 135.04769531 -14.65625 135.2890625 C-20.79309053 135.89410312 -26.83466375 136.12065893 -33 136 C-32.79141357 135.46705322 -32.58282715 134.93410645 -32.36791992 134.38500977 C-30.21514524 128.49753097 -29.48197286 123.17894326 -29.3125 116.9375 C-29.27833984 116.07189453 -29.24417969 115.20628906 -29.20898438 114.31445312 C-29.12759886 112.21005613 -29.06210231 110.1050543 -29 108 C-29.64549805 108.06058594 -30.29099609 108.12117188 -30.95605469 108.18359375 C-33.88719563 108.45763066 -36.81859115 108.72884468 -39.75 109 C-40.76578125 109.09539063 -41.7815625 109.19078125 -42.828125 109.2890625 C-43.8078125 109.37929687 -44.7875 109.46953125 -45.796875 109.5625 C-46.69760742 109.64628906 -47.59833984 109.73007813 -48.52636719 109.81640625 C-50.67919098 109.97618946 -52.84125478 110 -55 110 C-55.06058594 110.29003906 -55.06058594 110.29003906 -55.3671875 111.7578125 C-55.53476563 112.53898437 -55.70234375 113.32015625 -55.875 114.125 C-56.03742188 114.89070313 -56.19984375 115.65640625 -56.3671875 116.4453125 C-57 119 -57 119 -58.03125 121.875 C-59.08494676 125.27402179 -59.40784439 128.32812498 -59.625 131.875 C-59.69976563 133.02742188 -59.77453125 134.17984375 -59.8515625 135.3671875 C-59.87605469 135.80160156 -59.87605469 135.80160156 -60 138 C-70.12038815 140.25107699 -80.68093056 140.13683217 -91 140 C-90.7565686 139.58874878 -90.7565686 139.58874878 -89.5246582 137.50756836 C-83.15069315 126.37152721 -79.17207377 114.71830906 -75.1875 102.5625 C-74.46665562 100.39232788 -73.74453957 98.2225778 -73.02124023 96.05322266 C-71.88010558 92.6306104 -70.73991253 89.20772064 -69.60469055 85.78314209 C-66.93572621 77.7455498 -64.19239646 69.7358809 -61.40574455 61.73856163 C-59.875641 57.34227212 -58.35690536 52.94203435 -56.83560181 48.54269409 C-55.99555351 46.122589 -55.15058229 43.70418638 -54.30038452 41.28762817 C-49.83374684 28.57586096 -45.71334484 16.53951483 -45 3 C-39.34470526 1.37264444 -33.40288275 1.34623596 -27.5625 0.9375 C-26.35400391 0.84662109 -25.14550781 0.75574219 -23.90039062 0.66210938 C-15.91928943 0.09355744 -8.00025455 -0.11308076 0 0 Z " fill="#000000" transform="translate(1903,3019)"/>
<path d="M0 0 C0.45375 0.28875 0.45375 0.28875 2.75 1.75 C9.66710011 8.66710011 11.3537433 15.34701008 11.38061523 24.94262695 C11.08957151 37.17377605 5.02690489 47.07973526 -3 56 C-9.59662289 62 -9.59662289 62 -13 62 C-12.93941406 62.51755859 -12.93941406 62.51755859 -12.6328125 65.13671875 C-11.33558285 76.63393956 -10.45804099 88.13139836 -9.78564453 99.68237305 C-9.14334093 109.95150054 -7.96071452 119.45827867 -4 129 C-11.98340237 132.99170119 -26.26048243 131.09782757 -35 131 C-34.83967285 130.00049316 -34.6793457 129.00098633 -34.51416016 127.97119141 C-32.83602805 116.52724113 -33.25071295 105.84947364 -34.375 94.375 C-34.60642976 91.85105991 -34.83293701 89.32673366 -35.05728149 86.80215454 C-35.19675205 85.25120177 -35.34106999 83.70067365 -35.49130249 82.15072632 C-35.90687392 77.74378159 -36.06756844 73.42682257 -36 69 C-38.145 69.165 -38.145 69.165 -49 70 C-49.05091797 70.57427734 -49.05091797 70.57427734 -49.30859375 73.48046875 C-49.79784927 77.90102615 -50.57057554 82.24834819 -51.41015625 86.61328125 C-54.38489875 102.18600167 -57.05731015 117.06202849 -56 133 C-59.85375577 133.33819866 -63.70806128 133.66968331 -67.5625 134 C-68.10551758 134.04769531 -68.10551758 134.04769531 -70.85351562 134.2890625 C-76.2562501 134.74886969 -81.57754412 135.12447531 -87 135 C-86.6702417 134.2152832 -86.3404834 133.43056641 -86.00073242 132.62207031 C-82.8036822 124.72051296 -80.75296644 117.13490594 -79.3125 108.75 C-79.07829346 107.4511084 -78.84408691 106.1522168 -78.6027832 104.81396484 C-77.89180585 100.86121972 -77.20056396 96.9052104 -76.51281738 92.94836426 C-75.93478225 89.62504061 -75.353805 86.30223859 -74.77246094 82.97949219 C-74.55380875 81.72954468 -74.33515656 80.47959717 -74.10987854 79.19177246 C-73.65589987 76.59742239 -73.20174704 74.00310279 -72.74742126 71.40881348 C-71.60475891 64.88140528 -70.46679134 58.35325665 -69.33911133 51.82324219 C-68.91749722 49.39517938 -68.49586707 46.96711936 -68.07421875 44.5390625 C-67.97694992 43.9715477 -67.97694992 43.9715477 -67.48471069 41.09957886 C-67.30372833 40.06076569 -67.12274597 39.02195251 -66.9362793 37.95166016 C-66.77894821 37.04002106 -66.62161713 36.12838196 -66.45951843 35.18911743 C-66 33 -66 33 -65 31 C-63.16162109 30.58935547 -63.16162109 30.58935547 -60.7734375 30.3671875 C-59.90589844 30.28339844 -59.03835938 30.19960937 -58.14453125 30.11328125 C-57.23058594 30.03464844 -56.31664062 29.95601562 -55.375 29.875 C-54.48425781 29.78863281 -53.59351563 29.70226563 -52.67578125 29.61328125 C-47.76210392 29.15737304 -42.93382502 28.9053787 -38 29 C-38.17466797 29.40412109 -38.17466797 29.40412109 -39.05859375 31.44921875 C-39.51363281 32.51785156 -39.96867187 33.58648438 -40.4375 34.6875 C-40.88996094 35.74324219 -41.34242187 36.79898438 -41.80859375 37.88671875 C-42.85447455 40.61972529 -43.53520748 43.12042337 -44 46 C-41.14396497 45.74310796 -38.29102682 45.46996134 -35.4375 45.1875 C-34.63763672 45.11724609 -33.83777344 45.04699219 -33.01367188 44.97460938 C-26.31515648 44.2910874 -21.18146827 43.0391986 -16.125 38.3125 C-13.43357004 34.11703564 -13 31.97004738 -13 27 C-14.33951331 24.00204165 -15.0555975 22.47220125 -18 21 C-27.13389764 20.474923 -36.27163875 21.04770011 -45.375 21.8125 C-46.27702148 21.88251221 -47.17904297 21.95252441 -48.10839844 22.0246582 C-54.36756198 22.59977189 -60.05200548 23.9895365 -66 26 C-66.99 26.33 -67.98 26.66 -69 27 C-66.50683753 17.61516891 -63.76093265 8.30859901 -61 -1 C-44.9802384 -4.56471407 -14.11525258 -9.23907441 0 0 Z " fill="#000000" transform="translate(1761,3034)"/>
<path d="M0 0 C-0.74869792 1.62760417 -1.49739583 3.25520833 -2.24609375 4.8828125 C-4.22647979 10.44431113 -4.20040223 16.25845948 -4.31640625 22.08984375 C-4.3373233 22.998517 -4.35824036 23.90719025 -4.37979126 24.84339905 C-4.44671495 27.87467398 -4.50551092 30.90602272 -4.5625 33.9375 C-4.58301422 34.98413818 -4.60352844 36.03077637 -4.62466431 37.10913086 C-4.9865327 56.03653734 -5.13656888 74.96439216 -5.18122482 93.8948555 C-5.18747812 95.99265945 -5.19737978 98.09041737 -5.20828247 100.1882019 C-5.22811687 104.14631602 -5.23030984 108.10433381 -5.23046875 112.0625 C-5.23760895 113.238694 -5.24474915 114.414888 -5.25210571 115.62672424 C-5.23435833 122.09122218 -4.54190384 127.72961825 -3 134 C-4.88716107 135.88716107 -8.13279631 135.37653533 -10.66015625 135.53515625 C-11.32462265 135.57813339 -11.98908905 135.62111053 -12.6736908 135.66539001 C-14.80304314 135.80210844 -16.93273582 135.93237038 -19.0625 136.0625 C-20.50328215 136.15387298 -21.94403784 136.24566439 -23.38476562 136.33789062 C-26.9228824 136.5634558 -30.46133221 136.78323096 -34 137 C-33.52949219 135.906875 -33.05898437 134.81375 -32.57421875 133.6875 C-30.64350221 128.53892255 -30.22218539 123.44994321 -29.8125 118 C-29.77157227 117.51724609 -29.77157227 117.51724609 -29.56445312 115.07421875 C-29.3660556 112.7167893 -29.1781427 110.35903157 -29 108 C-29.33 108.165 -29.33 108.165 -31 109 C-32.81036822 109.22133998 -34.62712099 109.39161482 -36.4453125 109.53515625 C-37.52167969 109.62216797 -38.59804687 109.70917969 -39.70703125 109.79882812 C-40.83496094 109.88583984 -41.96289062 109.97285156 -43.125 110.0625 C-43.69283203 110.10793945 -43.69283203 110.10793945 -46.56640625 110.33789062 C-49.37733201 110.56229226 -52.18850766 110.78283166 -55 111 C-55.85314502 113.59904538 -56.68224189 116.20230451 -57.5 118.8125 C-57.73847656 119.53115234 -57.97695312 120.24980469 -58.22265625 120.99023438 C-60.24370598 127.54420993 -60 131.58943589 -60 139 C-65.28 139.33 -65.28 139.33 -92 141 C-89.69 137.04 -87.38 133.08 -85 129 C-83.38269073 124.89241757 -81.91844788 120.87543663 -80.5625 116.6875 C-79.93436596 114.81008547 -79.30618117 112.93268766 -78.67687988 111.05566406 C-77.97177673 108.94680255 -77.27256173 106.83604517 -76.57373047 104.72509766 C-73.82265549 96.43837944 -70.98270787 88.18146658 -68.16259766 79.9180603 C-67.12604313 76.8780593 -66.09188004 73.83725588 -65.05859375 70.79614258 C-61.83728461 61.31606762 -58.60686839 51.83942951 -55.33984375 42.375 C-55.05765991 41.55653595 -54.77547607 40.7380719 -54.48474121 39.89480591 C-53.17415498 36.0937304 -51.86068549 32.29370648 -50.54150391 28.49560547 C-50.08091225 27.16118197 -49.62045457 25.82671221 -49.16015625 24.4921875 C-48.96232544 23.92169678 -48.96232544 23.92169678 -47.96118164 21.03466797 C-46.5168795 16.47467925 -45.87374765 12.46892601 -45.9375 7.6875 C-45.94652344 6.80449219 -45.95554687 5.92148438 -45.96484375 5.01171875 C-45.97644531 4.34785156 -45.98804688 3.68398437 -46 3 C-40.4134667 2.569856 -34.82671593 2.14269819 -29.23974609 1.71826172 C-27.34059538 1.5735676 -25.44150578 1.42806897 -23.54248047 1.28173828 C-20.80712443 1.07110584 -18.07155902 0.86340244 -15.3359375 0.65625 C-14.49195404 0.59062866 -13.64797058 0.52500732 -12.77841187 0.45739746 C-8.50665186 0.13683406 -4.28786521 -0.07277848 0 0 Z " fill="#000000" transform="translate(1583,3041)"/>
<path d="M0 0 C28.71 0 57.42 0 87 0 C91 28 91 28 91 31 C90.34733154 30.79141357 89.69466309 30.58282715 89.0222168 30.36791992 C81.88013462 28.2335699 75.243738 27.47933344 67.8125 27.3125 C66.76513672 27.27833984 65.71777344 27.24417969 64.63867188 27.20898438 C62.09255531 27.12760165 59.54673556 27.05810653 57 27 C57.06070353 41.413134 57.13851487 55.82609014 57.23571491 70.23902607 C57.28055482 76.93220652 57.31962928 83.62532374 57.34643555 90.31860352 C57.37252662 96.78318279 57.41297058 103.24753026 57.46318626 109.71196556 C57.47981566 112.17295629 57.4913543 114.63398707 57.49761391 117.09502602 C57.50729752 120.55358561 57.53540873 124.01155736 57.56762695 127.4699707 C57.56619186 128.47770538 57.56475677 129.48544006 57.5632782 130.52371216 C57.65875545 137.81506861 58.97894512 142.58946542 61 150 C49.45 150 37.9 150 26 150 C26.99 146.37 27.98 142.74 29 139 C29.278842 135.10140869 29.4379172 131.36313575 29.43237305 127.4699707 C29.4425647 126.37596451 29.45275635 125.28195831 29.46325684 124.15480042 C29.49318514 120.57840723 29.50262198 117.00228277 29.51171875 113.42578125 C29.52858036 110.93042627 29.54673258 108.43507971 29.56611633 105.93974304 C29.61346123 99.40177033 29.64337093 92.86383176 29.66955566 86.32574463 C29.69785012 79.64222195 29.74594297 72.95881665 29.79101562 66.27539062 C29.87687227 53.18365781 29.9448611 40.09189641 30 27 C26.3949938 27.08225213 22.79151433 27.19495369 19.1875 27.3125 C18.18267578 27.33505859 17.17785156 27.35761719 16.14257812 27.38085938 C9.05734703 27.6314624 2.75049577 28.84260788 -4 31 C-3.52279147 26.95809881 -3.04309868 22.91649956 -2.5625 18.875 C-2.42779297 17.73289062 -2.29308594 16.59078125 -2.15429688 15.4140625 C-2.02216797 14.30546875 -1.89003906 13.196875 -1.75390625 12.0546875 C-1.63345947 11.03874512 -1.5130127 10.02280273 -1.38891602 8.97607422 C-0.99659811 5.97396799 -0.49773962 2.98643774 0 0 Z " fill="#000000" transform="translate(2335,3175)"/>
<path d="M0 0 C-0.13904844 3.75028389 -0.28741611 7.50014281 -0.4375 11.25 C-0.47681641 12.31347656 -0.51613281 13.37695312 -0.55664062 14.47265625 C-0.59853516 15.49746094 -0.64042969 16.52226562 -0.68359375 17.578125 C-0.72025146 18.52075195 -0.75690918 19.46337891 -0.79467773 20.43457031 C-0.97939228 22.74251377 -1.35861612 24.78140524 -2 27 C-2.8971875 26.83242187 -3.794375 26.66484375 -4.71875 26.4921875 C-15.53811064 24.72621748 -27.91441624 23.5839387 -37.8125 29.3125 C-41.29617714 31.95794136 -43.63458444 34.43687087 -44.2734375 38.91796875 C-44.49426083 43.44484708 -43.92650862 46.39063937 -41 50 C-35.66016147 54.76101634 -29.77710182 58.49203564 -23.72070312 62.27539062 C-16.69044144 66.8215869 -10.02961024 72.50656316 -7.43359375 80.74609375 C-4.89714733 93.93104497 -8.98019301 106.85177149 -16 118 C-24.77816918 129.31624019 -37.21575843 135.16568401 -51 138 C-55.72077119 138.5854932 -60.43981581 138.90852556 -65.1875 139.1875 C-66.42564453 139.26935547 -67.66378906 139.35121094 -68.93945312 139.43554688 C-71.95914032 139.63375028 -74.97908374 139.82169648 -78 140 C-78.05697253 133.24796346 -77.94714251 126.54984997 -77.5 119.8125 C-77.45230469 119.05130859 -77.40460938 118.29011719 -77.35546875 117.50585938 C-77.2400297 115.67037851 -77.12047924 113.83515692 -77 112 C-75.824375 112.33 -74.64875 112.66 -73.4375 113 C-62.46999679 115.39698577 -49.12502731 115.40105646 -39.03125 109.93359375 C-35.13032798 107.03658548 -33.34253612 103.58041735 -32 99 C-31.71646499 95.10139355 -32.12508261 93.01804903 -34.6953125 90.02734375 C-39.47673362 85.58010798 -44.75261512 82.19691419 -50.2890625 78.77734375 C-59.47307053 72.75612811 -65.97734526 65.65883514 -69 55 C-70.48004355 40.19956447 -66.31722883 26.9004075 -57.25 15.1875 C-43.08696569 -0.14967187 -19.34944005 -0.28262639 0 0 Z " fill="#000000" transform="translate(1500,3047)"/>
<path d="M0 0 C11.88 0 23.76 0 36 0 C35.01 2.31 34.02 4.62 33 7 C32.14339773 10.32998982 31.86874094 13.42168855 31.84178162 16.85322571 C31.83688721 17.327855 31.83688721 17.327855 31.81211853 19.72976685 C31.80636307 20.75907318 31.8006076 21.78837952 31.79467773 22.84887695 C31.78972794 23.39544197 31.78972794 23.39544197 31.76467896 26.16139221 C31.73312121 29.77033328 31.70832905 33.37928751 31.68359375 36.98828125 C31.66301929 39.49220622 31.64202269 41.99612775 31.62062073 44.50004578 C31.57108822 50.41432196 31.52580973 56.328621 31.48259836 62.24294585 C31.4282984 69.63921329 31.36738249 77.03542377 31.30664062 84.43164062 C31.19912131 97.62105497 31.0974786 110.81050782 31 124 C35.23212139 123.90540597 39.46375025 123.79909972 43.6953125 123.68261719 C45.13045513 123.64468107 46.56568146 123.60977138 48.00097656 123.578125 C58.3951727 123.34617641 68.15049413 122.62876532 78 119 C77.71619832 122.10493633 77.42143831 125.20874669 77.125 128.3125 C77.04636719 129.17423828 76.96773437 130.03597656 76.88671875 130.92382812 C76.25929213 137.41528045 75.17614469 143.53120422 74 150 C49.58 150 25.16 150 0 150 C1.32 145.05 2.64 140.1 4 135 C4.34113183 130.72655195 4.54093078 126.72883728 4.50170898 122.47192383 C4.50711197 121.31858047 4.51251495 120.16523712 4.51808167 118.97694397 C4.53044013 115.22003344 4.51416664 111.46390865 4.49609375 107.70703125 C4.496249 105.06678732 4.49774236 102.42654315 4.50050354 99.78630066 C4.5031892 94.27679522 4.48986934 88.7675097 4.46655273 83.25805664 C4.4399135 76.92028123 4.43821464 70.58287207 4.4499411 64.24505979 C4.46077732 58.10208341 4.45438333 51.95925852 4.44038582 45.8162899 C4.43589301 43.22212797 4.43551538 40.62795533 4.43945122 38.0337925 C4.44238339 34.40227294 4.42576148 30.77133796 4.40405273 27.13989258 C4.40630356 26.61220276 4.40630356 26.61220276 4.41769409 23.94177246 C4.33491317 15.54622107 2.64924158 7.94772473 0 0 Z " fill="#000000" transform="translate(2345,2992)"/>
<path d="M0 0 C-0.10995451 3.9172412 -0.24056734 7.83352845 -0.375 11.75 C-0.4059375 12.86117187 -0.436875 13.97234375 -0.46875 15.1171875 C-0.50742188 16.18710938 -0.54609375 17.25703125 -0.5859375 18.359375 C-0.60164795 18.85163574 -0.60164795 18.85163574 -0.68115234 21.34277344 C-1.00102258 24.00852201 -1.64368621 25.70616405 -3 28 C-3.91910156 27.67257813 -4.83820313 27.34515625 -5.78515625 27.0078125 C-10.94760805 25.53282627 -16.11212732 25.78491562 -21.4375 25.875 C-22.45521484 25.88402344 -23.47292969 25.89304687 -24.52148438 25.90234375 C-27.01458466 25.92575314 -29.50712211 25.96031787 -32 26 C-32.02385773 26.32565445 -32.02385773 26.32565445 -32.14459229 27.97366333 C-32.72862283 35.17646753 -33.80412789 42.20058015 -35.109375 49.3046875 C-35.31670258 50.4548938 -35.52403015 51.6051001 -35.73764038 52.79016113 C-36.17807241 55.23097689 -36.62057017 57.67142068 -37.06500244 60.11151123 C-37.75522254 63.9036935 -38.43889335 67.69700231 -39.12060547 71.49072266 C-40.72659228 80.42479341 -42.33834856 89.35781405 -43.95996094 98.2890625 C-44.69068517 102.31613087 -45.408927 106.34530191 -46.125 110.375 C-46.32448242 111.4563623 -46.52396484 112.53772461 -46.72949219 113.65185547 C-48.21743529 122.09132574 -48.41194574 129.52832558 -47 138 C-52.28 138.33 -52.28 138.33 -79 140 C-77.35 136.37 -75.7 132.74 -74 129 C-70.92167651 117.74658452 -69.22003853 106.16757318 -67.26904297 94.67428589 C-66.28529373 88.88169819 -65.28857453 83.09134081 -64.29296875 77.30078125 C-64.09681976 76.15839493 -63.90067078 75.01600861 -63.69857788 73.83900452 C-62.01182698 64.03004235 -60.27781721 54.23033701 -58.5 44.4375 C-58.43822067 44.09475037 -58.43822067 44.09475037 -58.12557983 42.36022949 C-57.78410153 40.46757118 -57.43903532 38.57556123 -57.09375 36.68359375 C-56.90490234 35.64775146 -56.71605469 34.61190918 -56.52148438 33.54467773 C-56 31 -56 31 -55 28 C-65.83747597 28.31142172 -75.58616571 30.05785233 -86 33 C-84.28464734 26.41750847 -82.41273194 19.88370665 -80.4375 13.375 C-80.22778564 12.66408203 -80.01807129 11.95316406 -79.80200195 11.22070312 C-79.26058 9.46113523 -78.63672969 7.72736569 -78 6 C-75.14538636 4.57269318 -72.51954761 4.64960484 -69.3347168 4.42749023 C-68.6499527 4.37857635 -67.9651886 4.32966248 -67.25967407 4.27926636 C-64.98979355 4.11821655 -62.71953834 3.96332086 -60.44921875 3.80859375 C-58.8721952 3.69824452 -57.29519451 3.58756809 -55.71821594 3.47657776 C-52.40875573 3.24453985 -49.09911551 3.01533963 -45.78930664 2.78833008 C-41.55217169 2.49765377 -37.31542283 2.20175611 -33.07878399 1.90394497 C-29.81976927 1.6751358 -26.56062477 1.44822427 -23.30143166 1.22197151 C-21.73973797 1.11350088 -20.17807053 1.00465165 -18.61643028 0.89541435 C-16.42889464 0.74286055 -14.24121109 0.59264318 -12.0534668 0.44311523 C-10.80929489 0.35730698 -9.56512299 0.27149872 -8.2832489 0.18309021 C-5.51148029 0.02852267 -2.77478556 -0.03731955 0 0 Z " fill="#000000" transform="translate(1683,3034)"/>
<path d="M0 0 C-0.14456635 0.36043144 -0.14456635 0.36043144 -0.87615967 2.18443298 C-1.24702698 3.1135701 -1.61789429 4.04270721 -2 5 C-2.32655579 5.81348404 -2.65311157 6.62696808 -2.98956299 7.46510315 C-5.61609586 14.30752755 -7.13341403 20.99186832 -8.296875 28.21484375 C-8.49175507 29.36815689 -8.68663513 30.52147003 -8.88742065 31.70973206 C-9.51784631 35.45079047 -10.13417863 39.19401239 -10.75 42.9375 C-11.5132406 47.50817483 -12.28090129 52.07809739 -13.05066299 56.64767838 C-13.27236597 57.96489262 -13.49362499 59.28218167 -13.71444321 60.59954453 C-15.19169918 69.40973069 -16.75381194 78.19813736 -18.4296875 86.97265625 C-18.61793091 87.9662767 -18.80617432 88.95989716 -19.00012207 89.98362732 C-20.42605053 97.5008881 -20.42605053 97.5008881 -21.15222168 101.14767456 C-23.4940146 112.91441457 -24.43781282 124.00068574 -24 136 C-34.18258681 138.12195659 -44.63497898 138.13744149 -55 138 C-54.67169189 137.3596582 -54.34338379 136.71931641 -54.00512695 136.05957031 C-50.44036796 128.73495625 -48.60314976 121.7443833 -47.1875 113.75 C-46.94365362 112.43180604 -46.69891008 111.1137778 -46.45336914 109.79589844 C-43.77425273 95.26636774 -41.35286885 80.687114 -38.90673828 66.11694336 C-36.89379427 54.1383589 -34.81919924 42.18052803 -32.45874023 30.26464844 C-30.62740852 20.7876902 -29.34212476 11.57883471 -31 2 C-27.14624423 1.66180134 -23.29193872 1.33031669 -19.4375 1 C-18.89448242 0.95230469 -18.89448242 0.95230469 -16.14648438 0.7109375 C-10.7437499 0.25113031 -5.42245588 -0.12447531 0 0 Z " fill="#000000" transform="translate(1825,3024)"/>
<path d="M0 0 C3.82414212 2.70488101 6.07909586 5.36228759 7.5625 9.8125 C7.67368761 12.32040592 7.73011403 14.80128638 7.73950195 17.30981445 C7.74278755 17.69048065 7.74278755 17.69048065 7.75941467 19.61688232 C7.77912593 22.13651632 7.79080513 24.65609079 7.80078125 27.17578125 C7.80485678 28.03711355 7.8089323 28.89844585 7.81313133 29.78587914 C7.83398237 34.34447362 7.84828851 38.90303808 7.85766602 43.46166992 C7.8687311 48.1660551 7.90313471 52.86996737 7.94283772 57.57418537 C7.96900129 61.19535696 7.97735759 64.81641578 7.98094749 68.43767357 C7.98581379 70.17159407 7.99742905 71.90550951 8.01598549 73.63933754 C8.04037312 76.06893888 8.03941312 78.4973153 8.0324707 80.92700195 C8.04528076 81.63942551 8.05809082 82.35184906 8.07128906 83.08586121 C8.01906167 88.11491554 6.67296611 90.91581204 3.5625 94.8125 C-0.84329383 98.93404907 -5.5746373 99.07143539 -11.453125 98.9609375 C-15.95868303 98.62390757 -18.74379098 97.39584622 -22.1875 94.5 C-26.21135756 89.6937257 -26.73605163 85.40544786 -26.72802734 79.28759766 C-26.73474457 78.54708664 -26.74146179 77.80657562 -26.74838257 77.04362488 C-26.7673234 74.60453514 -26.77128471 72.16572113 -26.7734375 69.7265625 C-26.77986801 68.02411793 -26.78659656 66.32167445 -26.79360962 64.61923218 C-26.80557248 61.0534204 -26.80929145 57.48770543 -26.80810547 53.921875 C-26.8079023 49.36333251 -26.83520617 44.8054136 -26.86964989 40.24701881 C-26.89193884 36.73130468 -26.89594241 33.21574016 -26.89488602 29.69996262 C-26.8972389 28.01990993 -26.90604481 26.33985293 -26.92155075 24.65987015 C-26.94125257 22.30487218 -26.93535746 19.95121313 -26.92333984 17.59619141 C-26.93457886 16.9092067 -26.94581787 16.22222198 -26.95739746 15.51441956 C-26.88819545 10.15010096 -25.34630658 7.16009299 -22.4375 2.8125 C-16.60263056 -2.6576901 -7.21149672 -2.49124432 0 0 Z " fill="#006D85" transform="translate(2490.4375,3201.1875)"/>
<path d="M0 0 C2.89021655 2.60642267 4.75899593 5.27698779 6 9 C6.111098 11.4721465 6.16760502 13.91688215 6.17700195 16.38964844 C6.18028755 16.7646347 6.18028755 16.7646347 6.19691467 18.66229248 C6.21662702 21.14465437 6.2283063 23.62695579 6.23828125 26.109375 C6.24235678 26.95842659 6.2464323 27.80747818 6.25063133 28.68225861 C6.27148434 33.17716732 6.28578878 37.67204558 6.29516602 42.16699219 C6.30622248 46.80178028 6.34061556 51.43608722 6.38033772 56.07070541 C6.40652696 59.64130525 6.41485994 63.2117909 6.41844749 66.78247833 C6.42330833 68.49045304 6.434908 70.19842282 6.45348549 71.90630341 C6.47792451 74.30217725 6.47690365 76.69681221 6.4699707 79.09277344 C6.48278076 79.79225098 6.49559082 80.49172852 6.50878906 81.21240234 C6.45198141 86.62490679 4.95481052 89.62579643 2 94 C-1.9922729 97.39620438 -5.95506439 97.45877199 -11 97.375 C-11.34933594 97.38080078 -11.34933594 97.38080078 -13.1171875 97.41015625 C-17.59697273 97.38479898 -20.42756837 96.71240179 -24 94 C-27.97014016 89.46269696 -28.1552641 85.31121175 -28.17700195 79.50268555 C-28.18357315 78.74135315 -28.19014435 77.98002075 -28.19691467 77.19561768 C-28.21662593 74.67598368 -28.22830513 72.15640921 -28.23828125 69.63671875 C-28.24235678 68.77538645 -28.2464323 67.91405415 -28.25063133 67.02662086 C-28.27148237 62.46802638 -28.28578851 57.90946192 -28.29516602 53.35083008 C-28.3062311 48.6464449 -28.34063471 43.94253263 -28.38033772 39.23831463 C-28.40650129 35.61714304 -28.41485759 31.99608422 -28.41844749 28.37482643 C-28.42331379 26.64090593 -28.43492905 24.90699049 -28.45348549 23.17316246 C-28.47787312 20.74356112 -28.47691312 18.3151847 -28.4699707 15.88549805 C-28.48278076 15.17307449 -28.49559082 14.46065094 -28.50878906 13.72663879 C-28.45656167 8.69758446 -27.11046611 5.89668796 -24 2 C-17.73309103 -3.86259226 -7.47773146 -3.103964 0 0 Z " fill="#006D85" transform="translate(2296,3019)"/>
<path d="M0 0 C3.51583409 3.25237365 5.92681271 6.39013768 6.14717102 11.23724365 C6.16232147 12.64997817 6.17180824 14.06277973 6.17700195 15.47558594 C6.18028755 15.86105591 6.18028755 15.86105591 6.19691467 17.81176758 C6.21666375 20.36930433 6.2283147 22.92678229 6.23828125 25.484375 C6.24235678 26.35765694 6.2464323 27.23093887 6.25063133 28.1306839 C6.27150038 32.75411239 6.28579765 37.37751114 6.29516602 42.00097656 C6.30622354 46.773769 6.34061329 51.54609433 6.38033772 56.31872177 C6.40650247 59.99050759 6.41485779 63.66218219 6.41844749 67.33405304 C6.42331497 69.09309285 6.43493358 70.85212764 6.45348549 72.61107635 C6.47787125 75.07670394 6.47691318 77.54112431 6.4699707 80.00683594 C6.48278076 80.73018127 6.49559082 81.45352661 6.50878906 82.1987915 C6.44772547 88.16539928 4.25574474 91.58604691 0.2734375 95.84765625 C-3.1779319 97.5970617 -6.59452321 97.47322616 -10.375 97.4375 C-11.1175 97.45748047 -11.86 97.47746094 -12.625 97.49804688 C-17.82666901 97.49345176 -21.06014639 96.6783589 -25 93 C-29.14401553 85.18063737 -28.43562724 76.67161628 -28.3984375 68.05859375 C-28.4004614 66.40527722 -28.40337546 64.75196156 -28.40713501 63.09864807 C-28.41154227 59.64486129 -28.4051783 56.1913083 -28.39111328 52.73754883 C-28.37400877 48.32377009 -28.38388055 43.91053822 -28.40183067 39.49677944 C-28.41270042 36.08657248 -28.40920781 32.67649399 -28.4014473 29.26628304 C-28.3994548 27.63928219 -28.40187097 26.01226946 -28.40888596 24.38528252 C-28.41655491 22.10737316 -28.40482206 19.83033514 -28.38818359 17.55249023 C-28.38579681 16.25979721 -28.38341003 14.96710419 -28.38095093 13.63523865 C-27.88399455 8.8930136 -26.48417656 5.15205602 -23.75 1.1875 C-16.90280684 -3.45880965 -7.35489361 -3.05297471 0 0 Z " fill="#006D85" transform="translate(2490,3019)"/>
<path d="M0 0 C7.39635794 2.7555059 11.31588128 13.77612928 14.9375 20.4375 C15.41832031 21.30890625 15.89914062 22.1803125 16.39453125 23.078125 C18.57201627 27.05703913 20.55965568 30.94688145 22.1875 35.1875 C25.09590642 32.64578197 26.60212299 29.79421521 28.3671875 26.3828125 C28.96660156 25.24199219 29.56601563 24.10117188 30.18359375 22.92578125 C31.12362056 21.12165476 32.0606558 19.31607332 32.99365234 17.50830078 C33.90177323 15.75394364 34.82187918 14.0058071 35.7421875 12.2578125 C36.01281006 11.73582275 36.01281006 11.73582275 37.38232422 9.09423828 C39.82082143 5.16771031 42.42434245 1.9809209 46.6875 0.0625 C49.1875 0.1875 49.1875 0.1875 52.0625 2.25 C54.1875 5.1875 54.1875 5.1875 54.01831055 8.00097656 C53.11599525 11.46175213 51.83170015 14.0296113 50.01953125 17.109375 C49.37306641 18.21796875 48.72660156 19.3265625 48.06054688 20.46875 C47.37387827 21.62510711 46.68702845 22.78135664 46 23.9375 C45.33935547 25.06671875 44.67871094 26.1959375 43.99804688 27.359375 C38.63442097 36.50877832 38.63442097 36.50877832 36.29052734 40.06835938 C35.72414551 40.93783203 35.15776367 41.80730469 34.57421875 42.703125 C34.06463623 43.45368164 33.55505371 44.20423828 33.0300293 44.97753906 C32.1875 47.1875 32.1875 47.1875 32.83422852 49.60375977 C34.3210776 52.4425337 35.84493318 55.23939808 37.453125 58.01171875 C38.09636719 59.12353516 38.73960938 60.23535156 39.40234375 61.38085938 C40.08071718 62.5455799 40.75910266 63.71029341 41.4375 64.875 C42.09363281 66.00873047 42.74976563 67.14246094 43.42578125 68.31054688 C46.89696257 74.29712698 50.40896872 80.25186488 54.03759766 86.14453125 C55.59735316 88.91566374 56.33605208 90.99363028 56.1875 94.1875 C54.625 97.0625 54.625 97.0625 52.1875 99.1875 C49.1875 99.8125 49.1875 99.8125 46.1875 99.1875 C43.20150713 95.89746003 41.01900888 92.35330409 38.875 88.4765625 C38.27429687 87.39632812 37.67359375 86.31609375 37.0546875 85.203125 C36.43851563 84.08421875 35.82234375 82.9653125 35.1875 81.8125 C33.95853204 79.59624397 32.72937054 77.38009524 31.5 75.1640625 C31.21382812 74.64537598 31.21382812 74.64537598 29.765625 72.02050781 C28.45584403 69.66922403 27.11460284 67.34302209 25.75 65.0234375 C24.1875 62.1875 24.1875 62.1875 24.1875 60.1875 C23.5275 60.1875 22.8675 60.1875 22.1875 60.1875 C21.91655518 61.06744629 21.64561035 61.94739258 21.36645508 62.85400391 C20.25829207 65.98733537 18.96651955 68.64236515 17.32421875 71.5234375 C16.76669922 72.50570312 16.20917969 73.48796875 15.63476562 74.5 C15.05404297 75.510625 14.47332031 76.52125 13.875 77.5625 C13.30587891 78.56539062 12.73675781 79.56828125 12.15039062 80.6015625 C3.37006516 96.00493484 3.37006516 96.00493484 0.1875 99.1875 C-2.6875 99.625 -2.6875 99.625 -5.8125 99.1875 C-8.25 97.0625 -8.25 97.0625 -9.8125 94.1875 C-9.73518125 87.91501666 -6.04843563 83.04720374 -2.875 77.875 C-2.29613037 76.90892822 -1.71726074 75.94285645 -1.12084961 74.94750977 C1.65632678 70.31684761 4.47640953 65.71593486 7.34375 61.140625 C7.81562744 60.37403564 8.28750488 59.60744629 8.77368164 58.81762695 C9.65539968 57.38696576 10.55243818 55.96560174 11.46655273 54.55541992 C12.65234375 52.62109375 12.65234375 52.62109375 14.1875 49.1875 C13.04384276 45.3950027 11.08456227 42.05489322 9.140625 38.6171875 C8.8415625 38.08609375 8.8415625 38.08609375 7.328125 35.3984375 C6.70421875 34.29757813 6.0803125 33.19671875 5.4375 32.0625 C3.60968923 28.82510634 1.78364648 25.58680956 -0.03540039 22.34448242 C-1.21888175 20.24205111 -2.41339043 18.14578875 -3.61889648 16.0559082 C-4.17134033 15.08226318 -4.72378418 14.10861816 -5.29296875 13.10546875 C-5.78949951 12.24203857 -6.28603027 11.3786084 -6.79760742 10.48901367 C-7.8125 8.1875 -7.8125 8.1875 -7.375 4.625 C-5.32073984 1.42035416 -3.83342642 0.25556176 0 0 Z " fill="#000000" transform="translate(1974.8125,3110.8125)"/>
<path d="M0 0 C3.02490733 3.58507535 2.95791803 7.10486076 2.9140625 11.578125 C2.47617483 16.25899314 1.05938238 20.62811762 -2.3125 24 C-1.90320954 26.78432807 -0.83806773 29.23162436 0.25 31.8125 C2.57010453 38.00706481 2.09702786 43.4593514 -0.1484375 49.59765625 C-4.75625237 59.10707285 -11.61804197 64.65017761 -21.40625 68.0859375 C-26.27188405 69.42249925 -31.23334652 69.46040713 -36.25 69.625 C-37.22001953 69.66367188 -38.19003906 69.70234375 -39.18945312 69.7421875 C-41.56363037 69.83575114 -43.93783883 69.92000897 -46.3125 70 C-46.11923126 69.47389633 -45.92596252 68.94779266 -45.72683716 68.40574646 C-43.62951337 62.45029295 -42.34842341 56.5658741 -41.3046875 50.34765625 C-41.13373566 49.3663121 -40.96278381 48.38496796 -40.78665161 47.37388611 C-40.24705989 44.27117965 -39.7166945 41.1669952 -39.1875 38.0625 C-38.64982446 34.93326682 -38.11015641 31.80440577 -37.56692505 28.6761322 C-37.23059925 26.73693398 -36.89770359 24.7971371 -36.568573 22.85670471 C-36.41816559 21.98497116 -36.26775818 21.11323761 -36.11279297 20.21508789 C-35.98194305 19.44725479 -35.85109314 18.67942169 -35.71627808 17.88832092 C-35.3125 16 -35.3125 16 -34.3125 14 C-31.16319107 12.95023036 -28.92435544 12.89868405 -25.625 12.9375 C-24.63113281 12.94652344 -23.63726563 12.95554687 -22.61328125 12.96484375 C-22.23365234 12.97064453 -22.23365234 12.97064453 -20.3125 13 C-21.3025 15.97 -22.2925 18.94 -23.3125 22 C-21.889375 21.731875 -20.46625 21.46375 -19 21.1875 C-18.19949219 21.03667969 -17.39898438 20.88585938 -16.57421875 20.73046875 C-14.01042681 19.90243923 -12.90399715 19.16280381 -11.3125 17 C-11.125 13.3125 -11.125 13.3125 -11.3125 10 C-18.21220334 6.66557088 -26.41645308 8.01344474 -33.625 10.0625 C-34.511875 10.371875 -35.39875 10.68125 -36.3125 11 C-35.83479477 9.06213915 -35.35528429 7.12472326 -34.875 5.1875 C-34.60816406 4.10855469 -34.34132813 3.02960937 -34.06640625 1.91796875 C-33.55172588 -0.0740843 -32.96312825 -2.04811524 -32.3125 -4 C-7.20916667 -6.23495495 -7.20916667 -6.23495495 0 0 Z " fill="#000000" transform="translate(1452.3125,3213)"/>
<path d="M0 0 C-0.19032303 0.65411865 -0.38064606 1.3082373 -0.57673645 1.98217773 C-2.55011516 8.9577632 -4.02386344 15.92286426 -5.26171875 23.0625 C-5.45723831 24.1750415 -5.65275787 25.28758301 -5.85420227 26.43383789 C-6.26271507 28.76954269 -6.66845639 31.10573378 -7.0715332 33.44238281 C-7.68614732 36.99218735 -8.31627039 40.53901291 -8.94726562 44.0859375 C-9.34469845 46.36962681 -9.74121368 48.65347604 -10.13671875 50.9375 C-10.3241716 51.98365479 -10.51162445 53.02980957 -10.70475769 54.10766602 C-11.84583917 60.83182755 -12.16736958 67.17890006 -12 74 C-14.805 74.165 -14.805 74.165 -29 75 C-28.649375 74.0409375 -28.649375 74.0409375 -26.875 69.1875 C-24.77991841 62.25360007 -25.02458485 57.85931389 -27 51 C-27.42230933 49.43796842 -27.84272348 47.8754238 -28.26171875 46.3125 C-29.46718161 41.86286624 -30.72324117 37.42967089 -32 33 C-35.04383191 47.31470664 -37.65240493 61.42147146 -39 76 C-41.64 76.165 -41.64 76.165 -55 77 C-54.55615967 75.77925781 -54.11231934 74.55851562 -53.6550293 73.30078125 C-51.68252989 67.36760018 -50.6057581 61.33463169 -49.51953125 55.1875 C-49.30181564 53.97860107 -49.08410004 52.76970215 -48.85978699 51.52416992 C-48.40357961 48.97992819 -47.95078328 46.4350727 -47.5012207 43.88964844 C-46.81433311 40.01035272 -46.11197351 36.13407659 -45.40820312 32.2578125 C-44.96520975 29.77620859 -44.52312194 27.29444281 -44.08203125 24.8125 C-43.97736794 24.23737671 -43.97736794 24.23737671 -43.44770813 21.3269043 C-42.36296086 15.11285086 -41.77811105 9.30780732 -42 3 C-36.27959989 2.1679418 -30.77759884 1.87963336 -25 2 C-24.95101563 2.39380859 -24.95101563 2.39380859 -24.703125 4.38671875 C-23.57957394 12.57120711 -21.63762577 20.17675076 -19 28 C-17.23226107 18.92981571 -15.55781762 10.28582994 -16 1 C-10.62915894 0.31798844 -5.41499441 -0.11521265 0 0 Z " fill="#000000" transform="translate(1867,3178)"/>
<path d="M0 0 C-0.24016846 0.96905273 -0.48033691 1.93810547 -0.7277832 2.93652344 C-3.42767242 14.01329916 -5.63691665 25.14938135 -7.66479492 36.3671875 C-8.18966884 39.26196155 -8.72633592 42.15439142 -9.26367188 45.046875 C-11.03658165 54.71954811 -12.49937209 64.16677116 -13 74 C-15.64 74.165 -15.64 74.165 -29 75 C-27.92578125 71.875 -26.8515625 68.75 -25.77734375 65.625 C-24.07929148 57.70644469 -26.9103611 50.10988325 -29.0625 42.5 C-29.20333008 41.99339844 -29.20333008 41.99339844 -29.91601562 39.4296875 C-30.60565183 36.95167266 -31.30041189 34.47522 -32 32 C-35.03863817 46.29028121 -37.75360228 60.43388933 -39 75 C-42.28519475 76.09506492 -44.73663415 76.09960608 -48.1875 76.0625 C-49.27417969 76.05347656 -50.36085938 76.04445313 -51.48046875 76.03515625 C-52.31191406 76.02355469 -53.14335938 76.01195313 -54 76 C-53.88519287 75.45214844 -53.77038574 74.90429688 -53.65209961 74.33984375 C-50.76781904 60.47500701 -48.14001598 46.56789406 -45.66531372 32.62475586 C-45.34823034 30.84145804 -45.02881388 29.0585734 -44.70700073 27.27612305 C-44.2494065 24.7360614 -43.80120172 22.19451039 -43.35546875 19.65234375 C-43.21820374 18.89791489 -43.08093872 18.14348602 -42.93951416 17.36619568 C-42.10231694 12.50953519 -41.87928888 7.92897923 -42 3 C-38.39006828 1.86519473 -35.0157673 1.89984233 -31.25 1.9375 C-30.66476562 1.94201172 -30.66476562 1.94201172 -27.703125 1.96484375 C-26.81109375 1.97644531 -25.9190625 1.98804687 -25 2 C-24.95101563 2.35771484 -24.95101563 2.35771484 -24.703125 4.16796875 C-23.51998085 12.05219659 -21.51189639 19.43992349 -19 27 C-15.55580866 9.14350797 -15.55580866 9.14350797 -16 1 C-10.63448968 -0.12958112 -5.4487449 -0.07892229 0 0 Z " fill="#000000" transform="translate(1757,3186)"/>
<path d="M0 0 C0.54785156 0.51820313 1.09570312 1.03640625 1.66015625 1.5703125 C2.22605469 2.08335937 2.79195312 2.59640625 3.375 3.125 C6.49165075 6.75657566 6.0496892 11.31117804 6.0078125 15.83984375 C5.30661494 22.86142478 0.94739917 29.01556522 -4.40087891 33.45996094 C-6.89095251 36.42627813 -6.63165634 37.90152792 -6.30078125 41.7109375 C-6.20667969 42.88011719 -6.11257813 44.04929687 -6.015625 45.25390625 C-5.89574219 46.47207031 -5.77585937 47.69023437 -5.65234375 48.9453125 C-5.55566406 50.14800781 -5.45898438 51.35070313 -5.359375 52.58984375 C-4.81932948 58.81745725 -4.0248435 64.6910826 -2.27734375 70.6953125 C-4.91734375 70.8603125 -4.91734375 70.8603125 -18.27734375 71.6953125 C-18.25671875 69.4265625 -18.23609375 67.1578125 -18.21484375 64.8203125 C-18.17566232 55.75506855 -18.69121218 46.73848524 -19.27734375 37.6953125 C-21.58734375 37.6953125 -23.89734375 37.6953125 -26.27734375 37.6953125 C-26.39851563 38.56671875 -26.5196875 39.438125 -26.64453125 40.3359375 C-27.47605623 46.24616118 -28.34128894 52.13411622 -29.40234375 58.0078125 C-30.257814 62.9869167 -30.44551788 67.65008858 -30.27734375 72.6953125 C-33.08234375 72.8603125 -33.08234375 72.8603125 -47.27734375 73.6953125 C-46.28734375 71.3853125 -45.29734375 69.0753125 -44.27734375 66.6953125 C-43.5749054 63.95533752 -43.5749054 63.95533752 -43.1105957 61.31079102 C-42.93063553 60.31028214 -42.75067535 59.30977325 -42.56526184 58.27894592 C-42.38388168 57.22138596 -42.20250153 56.16382599 -42.015625 55.07421875 C-41.82010544 53.97432114 -41.62458588 52.87442352 -41.42314148 51.74119568 C-40.80407569 48.24808543 -40.19680029 44.75304502 -39.58984375 41.2578125 C-39.17070003 38.88072203 -38.75078648 36.50376717 -38.33007812 34.12695312 C-37.30357967 28.31793855 -36.28764613 22.50716484 -35.27734375 16.6953125 C-30.32734375 16.3653125 -25.37734375 16.0353125 -20.27734375 15.6953125 C-21.59734375 18.9953125 -22.91734375 22.2953125 -24.27734375 25.6953125 C-13.54488072 24.54846238 -13.54488072 24.54846238 -9.02734375 21.5078125 C-6.85163211 18.01113308 -6.88065618 15.74152571 -7.27734375 11.6953125 C-17.0095697 11.49759233 -26.68420178 11.98635457 -36.27734375 13.6953125 C-35.99125068 12.29832614 -35.6981747 10.9027692 -35.40234375 9.5078125 C-35.23992187 8.73050781 -35.0775 7.95320313 -34.91015625 7.15234375 C-34.24114455 4.5547613 -33.32081887 2.16370112 -32.27734375 -0.3046875 C-28.77872059 -0.67341494 -25.2783601 -1.02198551 -21.77734375 -1.3671875 C-21.28621094 -1.41907227 -21.28621094 -1.41907227 -18.80078125 -1.68164062 C-5.22585118 -2.99388387 -5.22585118 -2.99388387 0 0 Z " fill="#000000" transform="translate(1542.27734375,3203.3046875)"/>
<path d="M0 0 C1.19625 -0.03738281 2.3925 -0.07476563 3.625 -0.11328125 C8.41506689 0.49102117 11.34049104 2.76743994 14.8125 6 C17.39776355 11.03446061 17.53251474 16.39715538 16.0625 21.8125 C13.67754124 28.15381558 8.6987646 32.6137354 4 37.3125 C3.92480469 39.9987793 3.92480469 39.9987793 4.171875 43.38671875 C4.25953125 44.61197266 4.3471875 45.83722656 4.4375 47.09960938 C4.4890625 47.74317383 4.4890625 47.74317383 4.75 51 C4.83765625 52.26779297 4.9253125 53.53558594 5.015625 54.84179688 C5.47252971 60.90530317 5.96607237 66.56406894 8 72.3125 C4.32612505 73.16548376 0.9552607 73.42039471 -2.8125 73.375 C-3.30041016 73.37048828 -3.30041016 73.37048828 -5.76953125 73.34765625 C-6.50558594 73.33605469 -7.24164062 73.32445313 -8 73.3125 C-7.98839844 72.19875 -7.97679687 71.085 -7.96484375 69.9375 C-7.89251831 59.68310897 -8.21994351 49.53681183 -9 39.3125 C-10.155 39.4775 -10.155 39.4775 -16 40.3125 C-16.68057238 44.10180391 -17.34184986 47.89424277 -18 51.6875 C-18.09539062 52.21794922 -18.09539062 52.21794922 -18.578125 54.90234375 C-19.70778185 61.47856039 -20.1980519 67.64062669 -20 74.3125 C-22.64 74.4775 -22.64 74.4775 -36 75.3125 C-35.40574219 73.05921875 -34.81148437 70.8059375 -34.19921875 68.484375 C-31.84800644 59.26373702 -30.29980107 49.95415646 -28.8125 40.5625 C-28.42349548 38.14299327 -28.0325505 35.72381428 -27.64006042 33.30487061 C-27.39945285 31.81832146 -27.16113009 30.33140004 -26.92549133 28.84405518 C-26.41013436 25.62697977 -25.87037714 22.45454633 -25 19.3125 C-19.91913204 18.46568867 -15.15171623 18.22211901 -10 18.3125 C-10.99 20.9525 -11.98 23.5925 -13 26.3125 C-7.04069781 26.62614748 -3.29326883 26.12117326 2 23.3125 C3.35439668 20.60370665 3.06501451 18.30316732 3 15.3125 C-1.98179564 12.51479013 -6.62986893 13.47089085 -12.0625 14.125 C-12.51141602 14.17301758 -12.51141602 14.17301758 -14.78320312 14.41601562 C-18.60574549 14.83947943 -22.28114102 15.30925074 -26 16.3125 C-25.71459486 14.74884416 -25.42136502 13.18661566 -25.125 11.625 C-24.96257812 10.75488281 -24.80015625 9.88476562 -24.6328125 8.98828125 C-23.99419952 6.28797329 -23.09215515 3.85933238 -22 1.3125 C-14.67580564 0.68052021 -7.34878883 0.19664747 0 0 Z " fill="#000000" transform="translate(1668,3191.6875)"/>
<path d="M0 0 C-0.25394531 0.50208984 -0.25394531 0.50208984 -1.5390625 3.04296875 C-2.23448807 4.42442225 -2.92979396 5.80593601 -3.625 7.1875 C-3.95628906 7.84169922 -4.28757812 8.49589844 -4.62890625 9.16992188 C-5.35043043 10.60616341 -6.05736403 12.04978816 -6.75292969 13.4987793 C-7.65105261 15.30012411 -8.61939786 17.06706034 -9.62988281 18.80786133 C-14.90502586 28.56687597 -14.4295871 36.62988575 -13.5 47.3125 C-13.3902654 48.91972227 -13.28347843 50.52714859 -13.1796875 52.13476562 C-12.67317772 59.33571741 -11.89745145 66.01415105 -10 73 C-13.50685958 73.95611549 -16.60571981 74.10211174 -20.25 74.0625 C-21.32765625 74.05347656 -22.4053125 74.04445313 -23.515625 74.03515625 C-23.92554688 74.02935547 -23.92554688 74.02935547 -26 74 C-25.98839844 73.06542969 -25.97679687 72.13085938 -25.96484375 71.16796875 C-25.89095491 60.41186418 -26.34656952 49.73492927 -27 39 C-29.31 39 -31.62 39 -34 39 C-34.03738281 39.59683594 -34.07476563 40.19367187 -34.11328125 40.80859375 C-34.6263259 47.57877124 -35.66269748 54.15614667 -36.98364258 60.80834961 C-37.89872046 65.61999756 -38.12647127 70.1006128 -38 75 C-43.20487672 76.60441588 -48.61465757 76.05853633 -54 76 C-53.87991577 75.55446777 -53.87991577 75.55446777 -53.2722168 73.29980469 C-50.39744286 62.37065304 -48.28532092 51.35358401 -46.33520508 40.22607422 C-45.81057077 37.23901571 -45.27401025 34.25426558 -44.73632812 31.26953125 C-41.62555088 13.78641465 -41.62555088 13.78641465 -41.2800293 4.94042969 C-41.18761963 4.30008789 -41.09520996 3.65974609 -41 3 C-38.11584117 1.55792059 -35.58278472 1.90605113 -32.375 1.9375 C-31.18648437 1.94652344 -29.99796875 1.95554687 -28.7734375 1.96484375 C-27.85820313 1.97644531 -26.94296875 1.98804687 -26 2 C-26.19335938 2.81082031 -26.38671875 3.62164063 -26.5859375 4.45703125 C-28.2676787 11.60859407 -29.76633179 18.7576419 -31 26 C-28.265625 26.0078125 -28.265625 26.0078125 -25 25 C-23.0773597 22.52162068 -21.95458243 19.75636118 -20.75 16.875 C-20.41226562 16.12734375 -20.07453125 15.3796875 -19.7265625 14.609375 C-17.75233114 10.14792304 -16.22689428 5.71978719 -15 1 C-9.94997778 -0.03590199 -5.12583611 -0.10251672 0 0 Z " fill="#000000" transform="translate(1598,3197)"/>
<path d="M0 0 C0.18451025 10.55808656 0.18451025 10.55808656 -1 15 C-1.556875 14.896875 -1.556875 14.896875 -4.375 14.375 C-10.17190253 13.66328065 -16.28628973 14.09942313 -21.1640625 17.515625 C-23.81845469 21.10752592 -24.34398016 24.72176714 -25.125 29.0625 C-25.28967773 29.91432861 -25.45435547 30.76615723 -25.62402344 31.64379883 C-25.94844281 33.3325462 -26.26633895 35.02256205 -26.57714844 36.71386719 C-26.92931594 38.61784898 -27.30890013 40.51673436 -27.6953125 42.4140625 C-28.94560558 48.66552791 -30.06081231 54.81756307 -28 61 C-25.36 61.33 -22.72 61.66 -20 62 C-19.31942762 58.21069609 -18.65815014 54.41825723 -18 50.625 C-17.90460938 50.09455078 -17.90460938 50.09455078 -17.421875 47.41015625 C-16.29221815 40.83393961 -15.8019481 34.67187331 -16 28 C-13.195 27.835 -13.195 27.835 1 27 C0.01 29.31 -0.98 31.62 -2 34 C-2.52153701 36.11263106 -2.97273659 38.2438931 -3.3515625 40.38671875 C-3.56296875 41.57330078 -3.774375 42.75988281 -3.9921875 43.98242188 C-4.20101563 45.20509766 -4.40984375 46.42777344 -4.625 47.6875 C-4.8415625 48.89083984 -5.058125 50.09417969 -5.28125 51.33398438 C-6.60148342 58.87642899 -7.51289841 66.35848383 -8 74 C-11.3317484 74.25792141 -14.66500846 74.47600187 -18 74.6875 C-18.93457031 74.76033203 -19.86914062 74.83316406 -20.83203125 74.90820312 C-27.06299167 75.2785749 -31.35185606 74.72207388 -37 72 C-41.12376357 67.87623643 -42.93255845 64.11819529 -43.11791992 58.29638672 C-43.05503042 52.18734431 -41.83229055 46.25910145 -40.71118164 40.27392578 C-40.31521455 38.13963165 -39.94331304 36.00202906 -39.57226562 33.86328125 C-37.62574873 23.09443288 -35.06954142 13.51956262 -26.15625 6.46875 C-17.9091943 0.85119032 -9.83178885 0 0 0 Z " fill="#000000" transform="translate(1907,3175)"/>
<path d="M0 0 C-0.33 4.95 -0.66 9.9 -1 15 C-2.32 14.67 -3.64 14.34 -5 14 C-6.51395696 13.92181364 -8.03093507 13.89210091 -9.546875 13.90234375 C-10.39121094 13.90556641 -11.23554687 13.90878906 -12.10546875 13.91210938 C-12.97816406 13.92048828 -13.85085938 13.92886719 -14.75 13.9375 C-15.63816406 13.94201172 -16.52632812 13.94652344 -17.44140625 13.95117188 C-19.62763316 13.96292578 -21.81382528 13.98086034 -24 14 C-24.66 19.28 -25.32 24.56 -26 30 C-21.38 30 -16.76 30 -12 30 C-12.33 34.62 -12.66 39.24 -13 44 C-18.28 43.67 -23.56 43.34 -29 43 C-29.9375 50.75 -29.9375 50.75 -30.22631836 53.17089844 C-30.63796236 56.51629593 -31.13541252 59.74433727 -32 63 C-31.67 62.835 -31.67 62.835 -30 62 C-27.96123279 61.81807035 -25.91856934 61.67866577 -23.875 61.5625 C-18.66656738 61.20409509 -13.99981938 60.47053511 -9 59 C-9.45294865 60.75140143 -9.91258748 62.50107344 -10.375 64.25 C-10.50261719 64.73726562 -10.50261719 64.73726562 -11.1484375 67.203125 C-12.61311444 72.01371531 -12.61311444 72.01371531 -14 74 C-16.57861328 74.63769531 -16.57861328 74.63769531 -19.8203125 74.828125 C-20.408125 74.86679688 -20.408125 74.86679688 -23.3828125 75.0625 C-24.61773438 75.124375 -25.85265625 75.18625 -27.125 75.25 C-28.33671875 75.32734375 -29.5484375 75.4046875 -30.796875 75.484375 C-36.8724008 75.85499531 -42.91383532 76.09106481 -49 76 C-48.76635742 75.35305176 -48.53271484 74.70610352 -48.29199219 74.03955078 C-44.70528579 63.33750879 -42.82119925 52.35295107 -40.85302734 41.26123047 C-40.24972735 37.87346898 -39.62760764 34.48952651 -39.00390625 31.10546875 C-38.61084289 28.92207925 -38.21887813 26.73849163 -37.828125 24.5546875 C-37.6438092 23.55855438 -37.45949341 22.56242126 -37.26959229 21.53610229 C-36.12244066 14.96460173 -35.78578548 8.66618087 -36 2 C-31.50034522 1.66189644 -27.00022839 1.33037391 -22.5 1 C-21.86578125 0.95230469 -21.86578125 0.95230469 -18.65625 0.7109375 C-12.4204271 0.25624208 -6.25261544 -0.12631546 0 0 Z " fill="#000000" transform="translate(1639,3194)"/>
<path d="M0 0 C0 4.62 0 9.24 0 14 C-1.216875 13.814375 -2.43375 13.62875 -3.6875 13.4375 C-9.86342494 12.72716997 -15.82810484 13.41529414 -22 14 C-23.32 19.28 -24.64 24.56 -26 30 C-21.05 29.67 -16.1 29.34 -11 29 C-11.33 33.95 -11.66 38.9 -12 44 C-13.32 43.67 -14.64 43.34 -16 43 C-18.08234592 42.93256652 -20.16668557 42.91485528 -22.25 42.9375 C-24.1475 42.958125 -26.045 42.97875 -28 43 C-28.99 49.27 -29.98 55.54 -31 62 C-28.298125 61.690625 -25.59625 61.38125 -22.8125 61.0625 C-21.97050049 60.96718994 -21.12850098 60.87187988 -20.26098633 60.77368164 C-16.46539621 60.33290052 -12.73485894 59.83080029 -9 59 C-9.51405169 63.96916636 -10.23384882 68.29026351 -12 73 C-16.08992596 73.93279013 -20.08539914 74.27687649 -24.26953125 74.53515625 C-24.61003258 74.55664482 -24.61003258 74.55664482 -26.33317566 74.66539001 C-28.49276577 74.8009486 -30.65261127 74.9317946 -32.8125 75.0625 C-34.28322256 75.153985 -35.75392595 75.24577863 -37.22460938 75.33789062 C-40.81619141 75.56216585 -44.40801774 75.78221765 -48 76 C-47.76635742 75.36610352 -47.53271484 74.73220703 -47.29199219 74.07910156 C-43.56562246 63.07552303 -41.7907441 51.7232146 -39.85302734 40.296875 C-39.24874027 36.74259056 -38.62723885 33.19161325 -38.00390625 29.640625 C-37.61095178 27.35955175 -37.21899006 25.07830721 -36.828125 22.796875 C-36.6438092 21.74667175 -36.45949341 20.69646851 -36.26959229 19.61444092 C-35.2703749 13.65029826 -34.81636848 8.04728425 -35 2 C-10.93883792 -0.29969419 -10.93883792 -0.29969419 0 0 Z " fill="#000000" transform="translate(1502,3204)"/>
<path d="M0 0 C0.08367468 4.85313132 -0.1279449 9.20713023 -1 14 C-1.94101563 13.96519531 -2.88203125 13.93039063 -3.8515625 13.89453125 C-5.09679688 13.86746094 -6.34203125 13.84039063 -7.625 13.8125 C-8.85476563 13.77769531 -10.08453125 13.74289063 -11.3515625 13.70703125 C-15.37959804 14.03048164 -17.63759361 14.77927028 -21 17 C-23.62291756 20.67135678 -24.60583822 23.91526706 -25.38671875 28.33203125 C-25.60263672 29.54310547 -25.81855469 30.75417969 -26.04101562 32.00195312 C-26.25435547 33.25943359 -26.46769531 34.51691406 -26.6875 35.8125 C-26.7999707 36.43543945 -26.7999707 36.43543945 -27.36914062 39.58789062 C-28.4492926 45.77660334 -29.47009269 51.7144058 -29 58 C-27.4375 60 -27.4375 60 -25 61 C-19.42308729 61.54675615 -14.36830626 60.36337937 -9 59 C-9.28740942 60.37589617 -9.58017742 61.75067322 -9.875 63.125 C-10.03742188 63.89070313 -10.19984375 64.65640625 -10.3671875 65.4453125 C-11.08860985 68.35772123 -12.02198334 71.16457354 -13 74 C-16.22899426 74.0875127 -19.45768116 74.14056146 -22.6875 74.1875 C-23.59951172 74.21263672 -24.51152344 74.23777344 -25.45117188 74.26367188 C-30.45851932 74.31829748 -33.96737337 74.33027092 -38 71 C-42.39076606 65.99940532 -43.00890604 61.4385756 -43 55 C-42.45527419 50.00835934 -41.64335978 45.09500081 -40.73168945 40.15869141 C-40.31263181 37.87571806 -39.92162188 35.58914361 -39.53320312 33.30078125 C-37.47072126 21.55576177 -34.63559233 12.7187427 -25 5 C-17.29436971 0.18224557 -8.88940964 -0.23393183 0 0 Z " fill="#000000" transform="translate(1797,3183)"/>
<path d="M0 0 C6.65568769 0.10456448 10.82271999 1.48065343 16.55517578 4.81347656 C21.23213062 9.74323977 24.13435647 15.52987261 24.43017578 22.37597656 C24.0211888 29.24265272 21.47610626 34.07782556 16.36767578 38.62597656 C12.51350356 41.76187123 9.36447691 43.51444685 4.32080078 43.44628906 C3.89863281 43.44306641 3.89863281 43.44306641 1.76220703 43.42675781 C1.32585938 43.41837891 1.32585938 43.41837891 -0.88232422 43.37597656 C-1.77048828 43.36695312 -2.65865234 43.35792969 -3.57373047 43.34863281 C-5.76020479 43.32512234 -7.94612516 43.29226155 -10.13232422 43.25097656 C-10.15696996 37.2878449 -10.17515822 31.32474262 -10.18725586 25.36157227 C-10.192297 23.33129358 -10.19912979 21.30101854 -10.20776367 19.27075195 C-10.21983889 16.3592031 -10.22555456 13.44770206 -10.22998047 10.53613281 C-10.23514175 9.62259537 -10.24030304 8.70905792 -10.24562073 7.76783752 C-10.2458159 5.59522229 -10.19444226 3.4227036 -10.13232422 1.25097656 C-7.86389227 -1.01745538 -3.0622907 0.00144482 0 0 Z " fill="#006A85" transform="translate(2173.13232421875,3071.7490234375)"/>
<path d="M0 0 C18.45714286 0 18.45714286 0 26.3125 5.1875 C31.26886212 10.37439059 33.22668311 14.77532359 33.5 22 C33.23732126 28.51771622 31.91433815 33.11145246 27.234375 37.75 C18.69534621 44.74259051 11.14785226 44 0 44 C0 29.48 0 14.96 0 0 Z " fill="#006D85" transform="translate(2158,3255)"/>
<path d="M0 0 C-0.22192017 0.60775269 -0.22192017 0.60775269 -1.3449707 3.68334961 C-3.34553521 9.70146224 -4.40159071 15.82810438 -5.48046875 22.06640625 C-5.69818436 23.29987289 -5.91589996 24.53333954 -6.14021301 25.80418396 C-6.71254671 29.06014878 -7.27819861 32.31719043 -7.84161377 35.57470703 C-8.18762026 37.56319115 -8.53896251 39.55065412 -8.89233398 41.5378418 C-9.57488913 45.379448 -10.24793398 49.22259859 -10.91796875 53.06640625 C-11.12729538 54.2436879 -11.33662201 55.42096954 -11.55229187 56.63392639 C-11.74281631 57.74545578 -11.93334076 58.85698517 -12.12963867 60.00219727 C-12.29823898 60.96988541 -12.46683929 61.93757355 -12.64054871 62.93458557 C-13.07034323 66.59988974 -13 70.30958295 -13 74 C-15.64 74.165 -15.64 74.165 -29 75 C-28.42765625 72.83953125 -27.8553125 70.6790625 -27.265625 68.453125 C-24.76975388 58.66234593 -23.00295049 48.74993465 -21.28027344 38.79882812 C-20.74803353 35.73869373 -20.19864902 32.68194787 -19.6484375 29.625 C-16.30231708 10.65903243 -16.30231708 10.65903243 -17 1 C-5.33013205 -0.14405762 -5.33013205 -0.14405762 0 0 Z " fill="#000000" transform="translate(1709,3189)"/>
<path d="M0 0 C4.95 0 9.9 0 15 0 C14.72027344 1.340625 14.44054688 2.68125 14.15234375 4.0625 C11.46355346 17.13227951 8.99705955 30.23756094 6.66531372 43.37524414 C6.34823034 45.15854196 6.02881388 46.9414266 5.70700073 48.72387695 C5.2494065 51.2639386 4.80120172 53.80548961 4.35546875 56.34765625 C4.28683624 56.72487068 4.28683624 56.72487068 3.93951416 58.63380432 C3.10231694 63.49046481 2.87928888 68.07102077 3 73 C-2.35971073 74.24439353 -7.53237433 74.06587501 -13 74 C-12.75983154 73.10821045 -12.51966309 72.2164209 -12.2722168 71.29760742 C-9.40374267 60.38667908 -7.28593234 49.38903311 -5.33520508 38.28100586 C-4.81114705 35.30481645 -4.27426934 32.33112961 -3.73632812 29.35742188 C-1.98631316 19.55519455 -0.51032866 9.95521738 0 0 Z " fill="#000000" transform="translate(1803,3182)"/>
<path d="M0 0 C0.33 0 0.66 0 1 0 C1 16.83 1 33.66 1 51 C-4.94 51.33 -10.88 51.66 -17 52 C-14.48893913 40.7609023 -10.66621819 30.08612163 -6.8125 19.25 C-6.15119225 17.37778086 -5.49038098 15.50538628 -4.83007812 13.6328125 C-3.22576745 9.08649922 -1.61476136 4.54261135 0 0 Z " fill="#006C85" transform="translate(1874,3053)"/>
<path d="M0 0 C0.66 0 1.32 0 2 0 C1.67 16.5 1.34 33 1 50 C-3.44821055 50.63545865 -7.07165959 51.12230603 -11.4375 51.0625 C-11.86998047 51.05798828 -11.86998047 51.05798828 -14.05859375 51.03515625 C-14.69925781 51.02355469 -15.33992188 51.01195313 -16 51 C-15.40422661 45.68992109 -14.16057678 41.00495544 -12.3828125 35.9765625 C-12.25390121 35.60375656 -12.25390121 35.60375656 -11.60153198 33.71713257 C-10.7819432 31.35098177 -9.95372841 28.98796323 -9.125 26.625 C-8.5762292 25.04708136 -8.02804696 23.4689579 -7.48046875 21.890625 C-6.68977417 19.61228249 -5.89853157 17.3341462 -5.10455322 15.0569458 C-3.3596007 10.05186334 -1.65536424 5.03554855 0 0 Z " fill="#006C85" transform="translate(1553,3076)"/>
<path d="M0 0 C4.6 2.2 4.6 2.2 6 5 C6.79160144 11.67206925 6.79160144 11.67206925 4.80078125 15.01171875 C2.18557783 18.15391531 -0.14601268 20.48176257 -4 22 C-6.140625 22.1953125 -6.140625 22.1953125 -8.25 22.125 C-9.4875 22.08375 -10.725 22.0425 -12 22 C-10.9245283 7.11320755 -10.9245283 7.11320755 -9 1 C-5.93570224 -0.53214888 -3.3834358 -0.22938548 0 0 Z " fill="#006D85" transform="translate(1435,3247)"/>
</svg>
